<?xml version="1.0" encoding="utf-8"?>
<!-- Svg Vector Icons : http://www.onlinewebfonts.com/icon -->
<!DOCTYPE svg PUBLIC "-//W3C//DTD SVG 1.1//EN" "http://www.w3.org/Graphics/SVG/1.1/DTD/svg11.dtd">
<svg class="icons" version="1.1" xmlns="http://www.w3.org/2000/svg" xmlns:xlink="http://www.w3.org/1999/xlink" viewBox="0 0 1000 1000" enable-background="new 0 0 1000 1000" xml:space="preserve">
<metadata> Svg Vector Icons : http://www.onlinewebfonts.com/icon </metadata>
<g><path d="M577.6,888.7c0-76.7,0-153.4,0-231.1c-51.8,0-102.5,0-154.3,0c0,76.8,0,153.6,0,231.7c-4.8,0.2-8.7,0.6-12.5,0.6c-72.8,0-145.7,0-218.6,0c-25,0-41.9-15.1-42-40.2c-0.5-95.1-0.4-190.2,0.1-285.3c0-5,4-11.4,8.1-14.8c65.9-54.8,132.2-109.3,198.4-163.9c44-36.3,88-72.6,132.1-108.9c3.4-2.8,6.9-5.5,11.2-9c26.3,21.6,52.4,43.1,78.6,64.6c86.2,71,172.2,142.2,258.6,212.9c9.3,7.6,13.3,15.3,13.2,27.5c-0.5,90.3-0.4,180.6-0.2,270.8c0,16.4-4,30.7-18.5,39.7c-5.2,3.3-11.9,6.1-17.9,6.2c-77.3,0.4-154.6,0.2-231.9,0.2C580.8,889.8,579.6,889.3,577.6,888.7L577.6,888.7z M693.7,248.9c0-38.1,0-73.3,0-108.5c0-22.5,5.4-27.8,27.8-27.9c34.8,0,69.7,0,104.5,0c18,0,24.2,6.4,24.2,25.4c0.1,75.3,0.3,150.6-0.2,225.9c-0.1,11.6,3.2,19.1,12.3,26.5c38.2,30.7,75.6,62.3,113.2,93.6c18.5,15.4,18.9,22.9,3.4,41.2c-9.4,11.1-18.6,22.4-28.1,33.5c-11.7,13.7-21.3,14.6-35.3,2.9C781.9,450.1,648.3,338.5,514.7,227c-4.6-3.8-9.4-7.6-14.8-12.1c-30,25-59.9,49.8-89.6,74.6C301.9,380.1,193.4,470.6,85,561.1c-14.7,12.3-23.8,11.5-36.2-2.9c-10.2-12-20.4-24.1-30.5-36.2C6.6,507.8,7,498.7,21.2,486.8c60.5-50.6,121.2-101.1,181.8-151.6c80.8-67.4,161.7-134.6,242.5-202.1c36.7-30.6,72.3-30.6,109.1,0.2c43.4,36.4,87,72.7,130.5,109C687.1,243.9,689.3,245.5,693.7,248.9L693.7,248.9z"/></g>
</svg>