<?xml version="1.0" encoding="utf-8"?>
<!-- Svg Vector Icons : http://www.onlinewebfonts.com/icon -->
<!DOCTYPE svg PUBLIC "-//W3C//DTD SVG 1.1//EN" "http://www.w3.org/Graphics/SVG/1.1/DTD/svg11.dtd">
<svg class="icons" version="1.1" xmlns="http://www.w3.org/2000/svg" xmlns:xlink="http://www.w3.org/1999/xlink" x="0px" y="0px" viewBox="0 0 1000 1000" enable-background="new 0 0 1000 1000" xml:space="preserve">
<metadata> Svg Vector Icons : http://www.onlinewebfonts.com/icon </metadata>
<g><path d="M355.9,592.3c-27.3,0-49.3-22.1-49.3-49.3c0-27.2,22.1-49.2,49.3-49.2c27.2,0,49.3,22.1,49.3,49.2C405.3,570.3,383.2,592.3,355.9,592.3L355.9,592.3z M355.9,395.2c0-27.2,22.1-49.3,49.3-49.3c27.2,0,49.3,22.1,49.3,49.3c0,27.2-22.1,49.3-49.3,49.3C378.1,444.5,355.9,422.4,355.9,395.2L355.9,395.2z M405.3,247.4c0-27.2,22.1-49.3,49.3-49.3c27.2,0,49.3,22.1,49.3,49.3c0,27.2-22.1,49.3-49.3,49.3C427.4,296.6,405.3,274.6,405.3,247.4L405.3,247.4z M430.4,610.9l38.2-61.7l183,49.3l-38.2,61.7L430.4,610.9L430.4,610.9z M775,302.9l-38.2,61.7l-183-49.3l38.2-61.7L775,302.9L775,302.9z M504.4,463.1l38.2-61.7l183.1,49.3l-38.2,61.7L504.4,463.1L504.4,463.1z M948.1,321.3L777.5,754.4l-87,162.8c-41.1,60-113.2,73.9-198.6,47.9L84.6,789.4C27.5,755,6.1,689,10.6,616.9l4.6-46.1l114.5,47.3l-0.3,0.4c0,0,132.1,57.1,177.1,72.4c51.3,17.5,172.7,49.2,172.7,49.2c-16,46.3-13.3,69.1,0,98.6c3.2,7.1,16.8,20.4,24.7,24.7c7.7,9.4,27.9,19.8,48.8,22.7c62.2,8.8,102-86.9,102-86.9l33-65.1l211-511.4L405.3,99.6l-175,442.7c-4.9,14.7-18.7,29.1-34.7,25.5c-41.4-9.3-23-53.3-17.2-69.2L358.9,50.5c18.4-18.9,37.7-28.5,58.4-28l481.4,101.6C1034.9,153.1,989.5,218.5,948.1,321.3L948.1,321.3z"/></g>
</svg>