<?xml version="1.0" encoding="utf-8"?>
<!-- Svg Vector Icons : http://www.onlinewebfonts.com/icon -->
<!DOCTYPE svg PUBLIC "-//W3C//DTD SVG 1.1//EN" "http://www.w3.org/Graphics/SVG/1.1/DTD/svg11.dtd">
<svg class="icons" version="1.1" xmlns="http://www.w3.org/2000/svg" xmlns:xlink="http://www.w3.org/1999/xlink" x="0px" y="0px" viewBox="0 0 1000 1000" enable-background="new 0 0 1000 1000" xml:space="preserve">
<metadata> Svg Vector Icons : http://www.onlinewebfonts.com/icon </metadata>
<g><g transform="translate(0.000000,511.000000) scale(0.100000,-0.100000)"><path d="M1462,4882.9c-179.8-109-179.8-350.1,0-459.1c63.1-38.3,105.2-38.3,3535.1-38.3c3429.9,0,3472,0,3535.1,38.3c179.8,109,179.8,350.1,0,459.1c-63.1,38.3-105.2,38.3-3535.1,38.3C1567.2,4921.1,1525.1,4921.1,1462,4882.9z"/><path d="M735.1,2989.1C109.6,1950.3,100,1933.1,100,1831.7c0-598.7,539.5-1075.1,1113.3-985.2c311.8,47.8,594.9,256.3,728.8,537.5c36.4,78.4,72.7,156.9,78.4,176c19.1,63.1,65,34.4,97.6-61.2c141.6-426.6,627.4-725,1061.7-652.3c344.3,57.4,669.5,330.9,774.7,652.3c42.1,124.3,74.6,116.7,133.9-28.7c160.7-394.1,508.8-633.2,918.2-629.4c260.2,1.9,468.7,89.9,660,275.5c101.4,99.5,218.1,279.3,250.6,390.2c17.2,59.3,36.4,86.1,59.3,86.1c19.1,0,34.4-11.5,34.4-26.8c0-13.4,34.4-95.7,76.5-179.8c187.5-374.9,604.5-600.7,994.7-541.4c350.1,53.6,658,304.2,788.1,642.8c49.7,132,82.3,130.1,130.1-3.8c95.6-275.5,342.4-508.8,631.3-600.7c593-189.4,1214.7,252.5,1256.8,891.4l11.5,153l-637,1057.9l-637,1055.9H4997.1H1368.3L735.1,2989.1z"/><path d="M616.5-1942.5c0-2630.3-13.4-2421.8,162.6-2599.7c172.2-170.2-30.6-158.8,2701.1-158.8h2396.9v2190.3v2190.3h1224.3h1224.3v-2190.3V-4701h292.7c375,0,459.1,23,596.9,158.8c176,177.9,162.6-30.6,162.6,2599.7V368.3H4997.1H616.5V-1942.5z M4997.1-1458.5v-1138.2H3246.8H1496.5v1138.2v1138.2h1750.3h1750.3V-1458.5z M4941.7-3015.7c74.6-76.5,74.6-156.9,0-233.4l-55.5-55.5H3248.7H1613.1l-49.7,44c-28.7,24.9-53.6,70.8-61.2,112.9c-9.6,61.2-1.9,78.4,47.8,130.1l57.4,57.4h1639.4h1639.4L4941.7-3015.7z"/><path d="M7581.5-2286.8c-168.3-89.9-177.9-344.3-17.2-443.8c49.7-32.5,86.1-38.2,166.4-32.5c89.9,5.7,112.9,17.2,168.3,76.5c53.6,59.3,63.1,84.2,63.1,160.7C7962.2-2309.8,7765.2-2187.4,7581.5-2286.8z"/><path d="M6276.9-4240c-38.3-38.3-55.5-74.6-55.5-116.7s17.2-78.4,55.5-116.7l55.5-55.5h749.9c876.1,0,879.9,0,879.9,172.2s-3.8,172.2-879.9,172.2h-749.9L6276.9-4240z"/></g></g>
</svg>