<?xml version="1.0" standalone="no"?>
<!DOCTYPE svg PUBLIC "-//W3C//DTD SVG 20010904//EN"
 "http://www.w3.org/TR/2001/REC-SVG-20010904/DTD/svg10.dtd">
<svg version="1.0" xmlns="http://www.w3.org/2000/svg"
 width="512.000000pt" height="512.000000pt" viewBox="0 0 512.000000 512.000000"
 preserveAspectRatio="xMidYMid meet">

<g transform="translate(0.000000,512.000000) scale(0.100000,-0.100000)">
<path class="splash" d="M1992 4715 c-50 -22 -76 -89 -68 -175 8 -89 30 -149 73 -199 81 -95
174 -94 247 1 60 80 69 144 32 223 -54 115 -196 190 -284 150z"/>
<path class="splash" d="M2633 4488 c-31 -34 -50 -113 -73 -303 -42 -343 -94 -469 -223 -537
-34 -18 -58 -23 -127 -23 -76 0 -91 3 -139 30 -73 41 -142 121 -230 267 -98
162 -136 214 -179 243 -67 45 -142 26 -142 -36 0 -38 26 -118 90 -279 106
-269 136 -384 128 -498 -5 -73 -34 -141 -70 -166 -31 -22 -91 -20 -141 5 -46
23 -131 86 -282 209 -55 44 -132 97 -172 117 -62 30 -79 35 -120 30 -51 -5
-83 -33 -83 -71 0 -61 76 -170 274 -391 252 -281 328 -407 296 -490 -26 -69
-101 -120 -320 -220 -251 -114 -340 -192 -340 -294 0 -87 75 -188 157 -210 81
-23 158 -11 387 60 196 60 262 65 306 21 38 -39 48 -115 26 -203 -18 -68 -29
-94 -119 -261 -71 -130 -81 -185 -45 -238 39 -58 61 -53 144 34 100 105 129
103 233 -20 29 -35 59 -64 66 -64 6 0 53 33 104 74 103 84 121 93 161 76 46
-19 79 -83 140 -269 88 -270 113 -306 183 -262 75 46 114 133 128 283 5 60 14
119 20 130 15 29 49 17 139 -48 281 -202 358 -244 461 -252 58 -4 69 -2 88 17
19 19 21 32 21 139 0 64 5 133 10 153 14 51 72 114 133 143 99 49 180 58 597
65 413 8 450 12 465 61 16 51 -39 89 -205 140 -263 81 -364 163 -377 310 -7
69 9 120 50 166 37 43 89 70 250 129 70 26 145 60 167 76 77 56 117 150 81
193 -23 28 -111 46 -266 56 -408 27 -506 70 -507 225 -1 94 40 190 194 453
140 240 168 331 115 380 -55 52 -120 12 -271 -162 -119 -139 -170 -185 -237
-215 -56 -26 -73 -26 -126 0 -101 49 -110 156 -38 448 73 293 76 364 21 419
-18 19 -38 26 -79 30 -66 5 -97 -9 -177 -83 -92 -85 -146 -103 -209 -71 -73
38 -103 98 -145 293 -27 120 -55 186 -85 203 -34 18 -86 12 -108 -12z"/>
<path class="splash" d="M4560 3365 c-173 -42 -350 -173 -350 -258 0 -42 53 -89 131 -114 205
-67 357 -49 473 58 67 61 91 116 84 191 -9 91 -84 139 -218 137 -36 0 -90 -7
-120 -14z"/>
<path class="splash" d="M395 3016 c-62 -29 -136 -107 -160 -169 -22 -58 -17 -137 12 -175 76
-103 297 -143 436 -79 93 42 196 163 197 229 0 35 -62 89 -154 133 -183 89
-247 101 -331 61z"/>
<path class="splash" d="M1954 942 c-64 -41 -104 -147 -104 -277 0 -106 21 -175 68 -224 122
-126 284 20 299 270 5 71 2 93 -15 131 -41 93 -174 146 -248 100z"/>
<style type="text/css">
        .splash{fill:url(#gradient)}
    </style>
    <defs>
        <linearGradient id="gradient">
            <stop offset="0%" stop-color="#FFFFB1" />
            <stop offset="100%" stop-color="#FFFFEA" />
        </linearGradient>
      </defs>
</g>
</svg>
